PathFileType	4	(X/Y/Z)	C:\Users\WrightLab\Desktop\Jo\P2_Trial40.trc
DataRate	CameraRate	NumFrames	NumMarkers	Units	OrigDataRate	OrigDataStartFrame	OrigNumFrames
100.00	100.00	       19	19	mm	100.00	420	       479
Frame#	Time	Headset_Front			Headset_Back			Headset_Left			Headset_Right			Left_Shoulder			Right_Shoulder			Sternum			C7			Left Elbow			Right Elbow			Left Wrist			Right Wrist			Left ASIS			Right ASIS			S2			Left Knee			Right Knee			Left Ankle			Right Ankle			
		X1	Y1	Z1	X2	Y2	Z2	X3	Y3	Z3	X4	Y4	Z4	X5	Y5	Z5	X6	Y6	Z6	X7	Y7	Z7	X8	Y8	Z8	X9	Y9	Z9	X10	Y10	Z10	X11	Y11	Z11	X12	Y12	Z12	X13	Y13	Z13	X14	Y14	Z14	X15	Y15	Z15	X16	Y16	Z16	X17	Y17	Z17	X18	Y18	Z18	X19	Y19	Z19	

420	4.190	-56.09308	1712.31165	2155.16724				-115.23862	1634.46033	2296.29907				-39.94458	1476.03821	2312.32153	-221.90921	1142.74731	1988.47693	-158.95840	1348.69727	2187.40283				-28.48408	1134.02942	2447.74463				-62.08970	896.25586	2485.66064	-338.32532	957.80829	2108.13062	-165.87775	1059.24658	2264.27222				62.33287	975.03998	2139.51782	-141.31726	506.30505	2394.22046	-67.67922	558.14288	2017.20837	-306.42126	267.83377	2553.08203				
421	4.200	-60.40083	1711.08679	2161.43311				-122.95316	1633.84277	2301.21167				-48.94750	1475.12170	2318.83887	-225.47775	1141.64990	1987.80823	-165.93907	1348.15015	2191.87573				-38.10952	1132.86011	2453.92261				-70.54517	894.61749	2491.51660	-340.87711	948.37848	2102.03125	-175.05179	1059.54333	2268.00171				55.67350	973.79095	2149.42529	-150.43190	504.17279	2400.36987	-73.51257	556.19885	2020.74121	-323.52298	273.07776	2552.00977				
422	4.210	-64.63126	1709.68628	2167.53784				-130.59709	1633.51746	2306.54883				-57.94279	1474.07983	2325.49512				-172.15895	1346.92773	2195.03442				-47.47369	1131.33459	2460.28149				-78.20772	892.93567	2497.37720	-342.60425	938.79724	2096.30200	-184.23122	1059.35388	2272.23022				48.12526	972.54688	2158.54199	-159.76921	502.16129	2406.43652	-80.07671	554.87732	2022.07837	-340.54459	280.58997	2553.20630				
423	4.220	-69.33365	1708.34863	2173.62524				-138.24593	1632.40100	2311.38745				-66.72993	1473.06018	2331.67480				-179.57961	1346.03601	2200.37305				-57.38549	1130.55066	2467.10303				-86.63670	891.80426	2504.14038	-345.00745	929.49036	2089.42993	-194.16290	1059.20740	2275.47534				41.16131	971.32825	2168.33057	-168.77603	499.79239	2412.15503	-85.90550	552.20288	2027.99548	-356.45654	283.86063	2550.37817				
424	4.230	-73.94742	1706.70642	2179.08301				-145.78781	1631.49292	2315.87964				-75.79581	1471.85388	2338.16772				-186.36763	1345.49121	2204.90015				-66.50826	1128.68665	2473.23022				-94.37629	889.68750	2508.99097	-346.23602	920.25903	2081.38013	-203.53848	1058.47241	2279.26489				33.53487	970.08643	2177.79272	-178.03876	497.26099	2417.89844	-93.06049	550.36853	2029.85681	-371.08075	285.94324	2547.81030				
425	4.240	-78.92729	1705.36096	2184.72778				-153.52864	1630.76123	2320.55737				-84.89064	1471.02991	2344.47656				-193.58473	1344.83569	2209.76099				-75.62307	1126.96985	2479.21753				-102.52124	886.99689	2514.24023	-347.36450	911.36847	2072.93018	-213.50266	1058.11755	2283.66162				26.16759	968.39063	2188.67334	-187.29256	494.28052	2423.98511	-99.90971	548.39996	2033.38586	-386.72314	287.09882	2544.94458				
426	4.250	-83.93410	1704.27966	2190.17480				-161.32881	1630.22400	2325.26611				-94.39076	1470.17334	2350.99854				-200.88705	1344.62524	2213.85815				-85.41757	1125.70972	2486.38892				-110.59591	885.55737	2519.36353	-345.97525	902.73523	2060.62500	-223.89796	1057.30762	2287.36255				18.42291	967.43011	2198.20972	-197.19733	492.27859	2429.22095	-106.66557	546.21271	2037.64136	-400.61115	287.91016	2543.37695				
427	4.260	-89.04116	1704.29480	2197.47510				-169.63568	1630.57397	2329.82715				-103.72015	1469.35828	2356.95947				-207.50627	1344.18018	2216.94336				-94.45818	1124.71021	2492.18481				-118.19313	883.92072	2524.47705	-344.72153	893.60309	2051.92798	-233.59142	1063.02075	2299.64014				11.24341	967.29639	2207.63745	-207.80276	491.36499	2434.03149	-114.14275	545.66223	2042.11377	-415.36823	282.74051	2536.79932				
428	4.270	-94.08027	1703.90674	2203.49341				-177.88055	1631.13623	2334.40381				-113.47168	1469.45544	2363.43433				-215.08699	1344.33215	2221.61572				-103.58270	1123.34534	2498.13501				-126.15829	882.45801	2529.73462	-343.95993	887.65234	2038.69812	-237.85112	1061.89600	2306.91968				3.45929	967.03314	2216.60132	-218.99367	491.72241	2437.36279	-121.47787	544.29126	2043.87573	-429.13724	278.70563	2532.93994				
429	4.280	-99.68943	1703.97791	2208.93213				-186.30789	1631.43347	2338.79932				-123.05511	1469.58398	2369.20508				-221.89255	1344.20032	2224.64087				-113.32883	1123.01379	2504.56714				-134.18010	881.51587	2534.95093	-339.78604	881.86383	2029.11609	-251.55783	1054.98438	2298.68896				-3.51186	967.81549	2224.68286	-230.52635	493.60623	2440.38916	-128.64311	543.33295	2046.42847	-440.51215	273.04523	2527.59399				
430	4.290	-105.31212	1703.84521	2215.24585				-194.92688	1632.54089	2343.74048				-133.05292	1469.96301	2375.21631				-229.38565	1344.70447	2229.37866				-122.84977	1122.73792	2510.19922				-142.07277	880.75275	2539.83545	-334.31976	876.12958	2018.09570	-260.17679	1054.97437	2302.34375				-10.75959	968.07520	2232.21973	-242.91801	497.20834	2443.65771	-135.25401	542.86169	2047.96265	-449.62628	265.12741	2521.32446				
431	4.300	-110.87984	1704.02148	2220.86377				-203.39565	1633.66785	2347.89526				-142.36914	1470.37488	2380.16919				-236.91928	1346.45496	2233.78662				-132.70152	1122.82263	2515.44629				-149.51801	879.85431	2543.58813	-328.86188	873.03802	2010.03284	-267.93030	1055.92798	2305.40796				-17.85150	968.94446	2240.83838	-255.12621	500.56155	2446.27783	-141.94400	543.45215	2052.37964	-457.34564	257.67087	2515.43604				
432	4.310	-116.04549	1703.93701	2226.49365				-211.94171	1634.22107	2351.98291				-151.50757	1471.00269	2384.32422				-244.48207	1347.80591	2238.32593				-142.19121	1123.59937	2520.25513				-157.97023	880.27271	2548.60962	-322.91733	871.46747	2001.25720	-276.24057	1058.40967	2309.80811				-24.50799	969.78851	2248.43994	-266.84143	503.64319	2448.11597	-147.69781	543.51508	2053.90405	-463.79236	248.03091	2508.43042				
433	4.320	-122.18173	1704.18835	2232.29004				-220.30917	1635.14795	2355.71802				-160.94716	1472.48962	2388.81812				-252.96440	1349.71753	2244.05347				-152.10866	1124.94275	2525.09326				-166.22420	880.85187	2552.85571	-317.31497	872.03412	1991.27576	-283.70483	1060.43506	2312.89917				-31.31478	971.19031	2257.79297	-279.17184	506.72794	2451.48047	-153.67723	544.46387	2056.38135	-469.67715	238.91763	2501.33057				
434	4.330	-127.96362	1704.94189	2237.56421										-169.88947	1473.49353	2393.37598				-261.44150	1351.46924	2249.54150				-161.67416	1126.22693	2529.79028				-174.35353	881.77350	2556.63818	-311.14288	871.84814	1985.47815	-291.04144	1062.33142	2316.42944				-37.56064	972.18286	2264.30103	-291.15558	508.65781	2454.98828	-159.02916	544.27991	2060.45142	-473.74576	229.05400	2495.11890				
435	4.340	-133.49213	1705.02014	2242.07813										-178.98174	1475.17212	2397.64722										-171.60068	1127.97461	2534.75342				-183.28804	883.43268	2561.44067	-306.65372	874.00006	1979.48938	-298.66559	1065.55066	2320.61816				-43.77402	973.58099	2273.06152	-303.12997	510.72513	2458.10254	-163.59714	543.68713	2065.22314	-478.10043	220.06447	2487.07642				
436	4.350	-139.15675	1705.21033	2246.30371										-188.16212	1476.49927	2401.77148										-181.45341	1129.04004	2538.03833				-192.43828	885.25525	2565.76855	-303.12402	876.11792	1974.49451	-305.36606	1067.36548	2323.61475				-49.99747	974.76831	2280.51733	-314.72034	511.91910	2461.21851	-168.82674	546.28296	2065.26538	-481.30930	211.72916	2481.30762				
437	4.360	-145.37764	1706.11169	2251.45361										-197.43420	1477.86499	2404.97925										-190.89526	1130.52368	2542.11450				-201.13503	886.03503	2568.19458	-299.28928	877.89752	1971.70508	-312.97388	1070.05591	2328.22803				-56.43509	976.05859	2288.30713	-325.94638	513.17181	2464.65112	-173.03700	544.90820	2070.95117	-482.96173	201.69450	2473.59814				
438	4.370	-150.97182	1706.91345	2256.15503										-207.04828	1479.34106	2409.36279										-200.60899	1132.25366	2546.18921				-211.11020	887.37823	2571.57349	-297.89905	881.25055	1963.48425	-319.64188	1070.97803	2331.05322				-63.29154	977.54797	2296.16357	-337.47324	514.09052	2467.67017	-177.60173	546.90314	2073.07056	-484.78180	192.60355	2467.05420				
